<svg width="49.401" height="71.102" viewBox="0 0 49.401 71.102" xmlns="http://www.w3.org/2000/svg"><g id="svgGroup" stroke-linecap="round" fill-rule="evenodd" font-size="9pt" stroke="#ffffff" stroke-width="0.25mm" fill="#ffffff" style="stroke:#ffffff;stroke-width:0.25mm;fill:#ffffff"><path d="M 48.501 7.6 L 43.301 13 A 25.244 25.244 0 0 0 39.83 10.342 A 20.167 20.167 0 0 0 36.651 8.7 A 18.972 18.972 0 0 0 31.756 7.466 A 23.948 23.948 0 0 0 28.901 7.3 A 17.291 17.291 0 0 0 15.975 12.803 A 22.457 22.457 0 0 0 14.901 14 Q 9.301 20.7 9.301 35.5 Q 9.301 50.2 13.851 57 A 14.754 14.754 0 0 0 24.575 63.599 A 21.95 21.95 0 0 0 27.601 63.8 A 27.703 27.703 0 0 0 35.741 62.637 A 24.457 24.457 0 0 0 40.701 60.5 L 40.701 39.6 L 27.201 39.6 L 26.201 32.3 L 49.401 32.3 L 49.401 65.1 A 52.905 52.905 0 0 1 41.572 68.691 A 46.914 46.914 0 0 1 38.951 69.55 A 36.401 36.401 0 0 1 33.124 70.737 Q 30.286 71.089 27.106 71.1 A 59.346 59.346 0 0 1 26.901 71.1 Q 14.301 71.1 7.151 62.05 A 29.312 29.312 0 0 1 2.39 52.91 Q 1.046 48.808 0.458 43.812 A 71.225 71.225 0 0 1 0.001 35.5 Q 0.001 25.264 3.226 17.768 A 32.107 32.107 0 0 1 4.001 16.1 Q 8.001 8.1 14.601 4.05 Q 21.201 0 28.901 0 Q 35.401 0 39.801 1.8 A 25.123 25.123 0 0 1 44.447 4.334 Q 46.453 5.704 48.438 7.542 A 40.91 40.91 0 0 1 48.501 7.6 Z" vector-effect="non-scaling-stroke"/></g></svg>